# xmcd CD database file
#
# Track frame offsets:
#	150
#	10515
#	19621
#	33883
#	43385
#	57564
#	68049
#	82083
#	94285
#	106243
#	120812
#	133196
#	149124
#	159151
#	171249
#	181973
#
# Disc length: 2575 seconds
#
# Revision: 5
# Processed by: cddbd v1.5.2PL0 Copyright (c) Steve Scherf et al.
# Submitted via: CDex 1.51
#
DISCID=d50a0d10
DTITLE=Memphis Slim - At The Gate Of Horn
DYEAR=1900
DGENRE=Blues
TTITLE0=The Come Back
TTITLE1=Steppin' Out
TTITLE2=Blue And Lonesome
TTITLE3=Rockin' The House
TTITLE4=Slim's Blues
TTITLE5=Gotta Find My Baby
TTITLE6=Messin' Around
TTITLE7=Wish Me Well
TTITLE8=My Gal Keeps Me Crying
TTITLE9=Lend Me Your Love
TTITLE10=Sassy Mae
TTITLE11=Mother Earth
TTITLE12=Guitar Cha Cha
TTITLE13=Stroll On Little Girl
TTITLE14=What's The Matter
TTITLE15=This Time I'm Through
EXTD=
EXTT0=
EXTT1=
EXTT2=
EXTT3=
EXTT4=
EXTT5=
EXTT6=
EXTT7=
EXTT8=
EXTT9=
EXTT10=
EXTT11=
EXTT12=
EXTT13=
EXTT14=
EXTT15=
PLAYORDER=
